# xmcd CD database file
#
# Track frame offsets:
#	182
#	39400
#	77350
#	112120
#	141680
#	179475
#
# Disc length: 2925 seconds
#
# Revision: 0
# Processed by: cddbd v1.4PL0 Copyright (c) Steve Scherf et al.
# Submitted via: CDex 1.50Beta7
#
DISCID=500b6b06
DTITLE=Bill Evans - Midnight Mood
DYEAR=1992
DGENRE=Jazz
TTITLE0=Two Lonely People
TTITLE1=Midnight Mood
TTITLE2=Who Can I Turn To?
TTITLE3=Time Remembered
TTITLE4=Waltz For Debby
TTITLE5=My Romance
EXTD=YEAR: 1992
EXTT0=
EXTT1=
EXTT2=
EXTT3=
EXTT4=
EXTT5=
PLAYORDER=
